<svg version="1.0" xmlns="http://www.w3.org/2000/svg" width="3306.667" height="3306.667" viewBox="0 0 2480 2480"><path d="M1218.7 207.6c-.1.1-10.8.5-23.7.8-12.9.4-25.7.9-28.5 1.1-2.7.2-8.4.6-12.5 1-4.1.3-9.5.7-12 1-2.5.3-7 .7-10 1-3 .3-7.3.8-9.5 1.1-2.2.3-5.8.7-8 1-2.2.2-5.8.7-8 1-2.2.3-5.1.7-6.5.9-3.7.5-11.2 1.7-13.5 2.1-1.1.2-4 .7-6.5 1-2.5.3-5.2.7-6 .9-.8.2-3.1.7-5 1-15.5 2.6-65.8 14.1-76.5 17.5-1.6.6-10.6 3.3-20 6.1-88.5 26.4-179.6 72.5-256.1 129.4-8.3 6.2-15.9 12-17 12.8-1 .9-4.8 3.9-8.4 6.8-3.6 2.8-7.6 6.1-9 7.3-1.4 1.1-5.2 4.3-8.5 7.1-3.3 2.7-6.2 5.2-6.5 5.5-.3.3-4.3 3.9-9 8-16.5 14.5-43.2 40.6-58.5 57.1-68.9 74.5-125.4 162.6-163 254.4-9.2 22.7-23.6 62.6-26.1 72.5-.2.8-1.5 5.3-2.9 10s-4.8 17.2-7.6 27.9c-5.5 21-5.4 20.4-7.4 30.6-.7 3.8-1.6 7.7-1.9 8.5-.3.8-.7 3.1-1 5-.6 3.4-1 5.7-2.1 11-.3 1.4-.8 4.1-1.1 6-.2 1.9-.7 4.6-1 6-.2 1.4-.6 3.6-.9 5-.3 1.3-.7 4.2-1 6.5-.3 2.2-.8 5.1-1 6.5-.7 4.1-2.2 14-3 21-.3 2.5-.7 6.1-1 8-.5 4-1.6 15.9-2.9 31-1.7 18.9-2.1 32.5-2.1 67 0 33.6.6 53.5 2 67.5.7 7.2 1.5 16.5 2 22.5.3 3.6.7 7.6 1 9 .2 1.4.7 5 1 8 .4 3 .8 6.7 1.1 8.1.2 1.5.6 4.7.9 7 .5 3.9 1.6 10.6 3 18.6.3 1.6.7 4.5 1 6.6 1.4 10.4 11.8 57.9 15.5 71 1.1 4 2.5 8.8 3 10.7 6.8 24 11.1 37.6 19 59.5 6.5 17.9 11.1 29.9 14 36.2 1.1 2.4 2 4.5 2 4.8 0 .3 3.5 8.3 7.7 17.8 9 20.1 24.2 50.4 33.9 67.3 3.7 6.6 7.3 13 8.1 14.4 2.7 5.3 25.2 40.5 32.8 51.6 43.8 63.5 98.1 123.2 155.6 171.1 15.8 13.1 16.4 13.6 28.9 23 22.3 16.8 27 20.3 27.9 20.3.5 0 1.1.4 1.3.8.6 1.6 42.9 29.1 56.8 37 1.9 1.1 7.6 4.3 12.5 7.2 5 2.9 19.4 10.5 32 17 20 10.1 28.5 14.1 52.9 25 19.8 8.8 73.8 28.2 90.6 32.5.8.2 9.6 2.6 19.5 5.3 22.9 6.3 47.5 12 68 15.7 9.6 1.7 20.6 3.5 24.5 4.1 2.5.3 5.4.7 6.5.9 1.1.2 4.3.6 7 .9 2.8.3 6.4.8 8 1.1 1.7.2 5 .7 7.5.9 2.5.3 6.6.8 9.3 1.1 9.7 1.1 13.4 1.4 21.2 2 4.4.3 10.3.8 13 1 28.2 2.3 129.8 2.3 151.5 0 1.9-.2 7.3-.6 12-.9 4.7-.4 10.1-.8 12-1 1.9-.3 6.4-.7 10-1.1 3.6-.3 7.6-.8 9-1 1.4-.2 4.8-.7 7.5-1 2.8-.3 6.4-.7 8-1 1.7-.3 4.8-.7 7-1 2.2-.3 11.1-1.7 19.9-3.1 16.1-2.6 16-2.6 40.1-.9 4.4.3 15.8 1.3 22 2 2.2.3 6.5.7 9.5 1 8.3.7 34.2 3.5 37 4 1.4.2 5 .6 8 1s6.6.8 8 1c1.4.2 4.8.7 7.6 1 2.8.3 5.9.7 7 .9 3.5.7 10.4 1.8 12.7 2.1 6.7.8 13.3 1.7 15.1 2.1 1.2.2 3.7.7 5.6.9 4.8.7 9 1.4 12 2 2.8.6 11.9 2.2 16.5 2.9 1.7.3 7.5 1.4 13 2.5s11.8 2.3 14 2.7c2.2.3 4.3.8 4.6 1 .3.2 1.9.6 3.5.8 4.2.8 6.2 1.2 13.4 3 3.6.8 11.5 2.7 17.5 4.1 6.1 1.4 13.3 3.2 16 4 2.8.8 11.5 3.3 19.5 5.6 14.8 4.2 33.4 10.2 45 14.6 3.6 1.4 7.2 2.6 8 2.8 1.5.4 10.9 4.1 19 7.7 2.5 1 5.4 2.3 6.5 2.8 6.4 2.7 27.3 13 35 17.3 18.1 10.2 38 24.4 50.3 36.2l5.3 5-3.3.1c-1.8.1-8.2.4-14.3.8-11.7.6-71.6.7-82.5.1-3.6-.2-12.6-.6-20-.9-7.4-.4-16-.9-19-1.1-3-.2-9.3-.7-14-1-4.7-.3-11.2-.8-14.5-1.1-3.3-.2-8.5-.7-11.5-.9-8.7-.7-29.2-2.6-32.5-3-1.6-.2-6.1-.6-10-1-3.8-.4-8.1-.8-9.5-1-1.4-.2-5.6-.7-9.5-1-3.8-.4-8.1-.8-9.5-1-1.4-.2-5.2-.6-8.5-1-3.3-.3-9.1-1-13-1.5-3.8-.5-9.5-1.2-12.5-1.6-22.9-2.5-119-15.4-134-17.9-1.4-.3-15.2-2.3-30.5-4.5-15.4-2.2-32-4.7-37-5.5-4.9-.7-11-1.6-13.5-2-2.5-.3-7-1-10-1.5s-7.5-1.2-10-1.5c-2.5-.3-7-1-10-1.5s-7.5-1.2-10-1.5c-2.5-.3-7-1-10-1.5s-7.7-1.2-10.5-1.5c-2.7-.4-5.7-.8-6.5-1-.8-.2-3.5-.7-6-1-4.2-.6-18.9-2.7-27-4-5-.7-43.8-6.4-48-7-1.9-.3-13.2-1.8-25-3.5s-23.3-3.3-25.5-3.6c-2.2-.3-6.7-.9-10-1.4-3.3-.5-8-1.1-10.5-1.4-4.2-.5-9.3-1.2-28-3.6-4.1-.6-9.5-1.3-12-1.5-2.5-.3-6.1-.8-8-1-7.9-1.1-11.1-1.5-24-3-7.4-.9-14.8-1.8-16.5-2-1.6-.3-9.7-1.2-18-2-8.2-.9-16.6-1.8-18.5-2-1.9-.2-6.2-.7-9.5-1-3.3-.3-7.8-.8-10-1-2.2-.3-7.1-.7-11-1-3.8-.3-8.8-.7-11-1-2.2-.2-7.1-.7-11-1-3.8-.3-9.2-.8-12-1-2.7-.3-8.4-.7-12.5-1-4.1-.2-11.1-.7-15.5-1-35.4-2.4-53.9-3-97-3-38.6 0-62.4.6-75.5 2-9.9 1.1-13.8 1.5-19.5 2-5.3.5-11.4 1.3-24.5 3.1-11.5 1.7-36.5 7.2-49.5 10.9-54 15.5-89.3 40.9-107.4 77.2l-4 8.1v108.1c0 59.4.1 108.1.4 108.1.2 0 3.2-2 6.7-4.4 25.2-17.4 70.6-37.7 114.4-51 47.6-14.5 110.1-26 157.9-29.2 5-.3 10.6-.7 12.5-.9 20.3-2.4 107.3-2.4 133 0 1.9.1 8.4.6 14.4 1s11.6.8 12.5 1c.9.1 5.6.6 10.5 1s9.8.8 11 1c1.1.2 5.3.6 9.1 1 3.9.4 7.7.8 8.5 1 .8.1 4.2.6 7.5.9 12.1 1.4 48.5 6.8 65 9.7 19.8 3.5 46.6 8.6 48.6 9.3.8.3 2.8.7 4.4.9 9.1 1.3 65.7 15.1 95.5 23.1 14.4 4 62.3 16 82 20.6 22 5.2 74.8 16.4 87.5 18.6 1.7.2 8.9 1.5 16 2.9 7.2 1.3 14.8 2.6 17 3 2.2.4 4.9.9 6 1.1 2.1.4 32.4 5.1 38.5 6 1.9.3 4.6.7 6 1 2.3.4 36.9 4.8 46.8 5.9 16.3 1.9 30.7 3.4 39.7 4 4.4.4 8.9.8 10.1 1 1.1.2 7.6.6 14.5 1 6.8.4 13.2.9 14.1 1.1 12.4 2.2 126.2 2.2 138.5 0 1-.2 6.8-.7 12.8-1.1 6.1-.4 11.7-.8 12.5-1 .8-.1 4.7-.6 8.5-.9 13.5-1.3 45.8-6 56.4-8.1.9-.2 7.5-1.5 14.6-2.9 58.4-11.9 118.4-35.7 147.3-58.7l6.2-5-.1-148.7c-.1-114.9-.4-150.5-1.4-156.7-3-19-16-46.2-32.4-68-9.2-12.2-27.6-31.5-38.1-40.1-1.9-1.6-4.1-3.5-4.8-4.2-.8-.7-3-2.5-5-4-2.1-1.5-3.9-2.9-4.2-3.3-2.5-2.8-29-19.9-45.1-29.1-13.5-7.8-38.9-19.7-58.9-27.8-5.8-2.3-12.1-4.8-14-5.5-1.9-.8-8.6-3.2-14.8-5.3l-11.4-3.8 8.9-8c11.7-10.5 54-52.7 63.4-63.4 12-13.5 14.2-16 20.8-24 3.4-4.1 7-8.4 8-9.6 16.3-19 56.3-76 69.1-98.4 11.4-19.7 15.4-26.9 19.2-34 5.5-10.3 19.7-38.6 22.8-45.5 1.2-2.8 3.6-7.9 5.2-11.5 10.1-22.1 21.2-50.6 29.9-77.5 3.4-10.5 6.5-19.9 6.9-21 .5-1.1 2-6.5 3.5-12s3.4-12.1 4.1-14.6c.8-2.5 1.6-5.4 1.8-6.5.2-1 1.8-7.5 3.5-14.4 2.6-10.9 5.4-23.8 9.1-42.5 1.2-6.1 1.7-9.2 3-17.5.6-3.6 1.3-7.6 1.5-8.9.2-1.3.7-4.5 1.1-7 .3-2.5.8-5.7 1-7.1.2-1.4.6-4.8.9-7.5.3-2.8.8-6.6 1-8.5 1.7-14.2 1.9-16.3 3-30 .4-4.7.8-10.3 1-12.5 2.3-24.3 2.3-86.4-.1-116.5-1.2-15.5-2.6-31.8-2.9-34-.2-1.4-.6-5-1-8-.3-3-1.2-10-2-15.5s-1.7-11.6-1.9-13.5c-.3-1.9-.7-5.1-1.1-7-.3-1.9-.8-4.6-1-6-1.2-7.1-1.8-10.5-4-21.5-1.3-6.6-2.7-13.5-3-15.4-.3-1.9-.8-3.7-1-4.1-.2-.4-.7-2.2-1-4.1-.3-1.9-.8-4.2-1.1-5.1-.3-.9-.7-2.7-.9-4-.9-4.6-3.8-15.6-7.7-29.3-2.1-7.7-4-14.5-4.2-15-9.9-36.6-35-100.5-53.8-137-1.7-3.3-3.5-6.8-4-7.8-1.9-4.1-2.7-5.6-6.3-12.2-15.4-28.5-26.9-47.6-43.8-72.9-13-19.6-19.6-28.9-20.9-29.4-.4-.2-.8-.8-.8-1.3 0-1.6-27.4-36.3-40.9-51.8-17.8-20.5-22.6-25.6-43.6-46.6-26.2-26.3-45.8-43.8-72.5-65-12.2-9.7-32.5-24.9-37.5-28-1.6-1.1-3.2-2.2-3.5-2.6-1.7-2.2-50.4-33.2-62.5-39.9-8.5-4.6-19.7-10.9-21.5-12-4.3-2.7-51.2-25.5-61.5-30-37.6-16.3-75.5-29.8-111-39.7-20.8-5.7-24.8-6.7-47-11.7-8.8-1.9-17.3-3.8-19-4.1-14.1-2.5-21.5-3.8-24-4.2-1.6-.2-5.5-.8-8.5-1.3s-7.5-1.2-10-1.5c-2.5-.3-7.2-1-10.5-1.5-5.8-.8-11.5-1.5-21.7-2.5-2.7-.3-6.9-.7-9.5-1-6.6-.6-19.9-1.7-25.3-2.1-12.9-.8-93.7-2.3-94.3-1.8zm568.1 1529c9 2.1 32.7 9.6 33.8 10.7.7.6.8 31.7.1 32.3-.2.2-3.2-.6-6.7-1.7-3.4-1.2-12.2-3.9-19.4-5.9l-13.1-3.7-.1-16.7c-.1-14.4 0-16.6 1.3-16.2.8.4 2.7.9 4.1 1.2zm112.7 42.7 16 8.2.3 16.7.2 16.6-19.7-9.9-19.8-9.9-.1-16.3-.1-16.4 3.6 1.4c2 .8 10.8 5.2 19.6 9.6zm89.8 62.9c9 9 17.2 17.8 18.2 19.5 1.1 1.8 2.3 3.3 2.7 3.3.4 0 .8 7.4.8 16.5s-.3 16.5-.7 16.5c-.5 0-1.9-1.7-3.3-3.7-2.8-4.1-23.8-25.6-31.2-32l-4.8-4.1v-16.1c0-10.4.4-16.1 1-16.1s8.4 7.3 17.3 16.2zm-452.5 29.3-.1 12.6-2.6-.5c-1.4-.3-4.6-.8-7.1-1.1-2.5-.2-5.6-.7-7-.9-1.4-.2-5.4-.7-9-1.1-3.6-.3-7.4-.8-8.5-1-1.1-.2-3-.4-4.1-.4-1.8-.1-2.1-.6-1.7-3.8.2-2.1.5-3.8.6-3.8.1-.1 7.8-2.5 17.2-5.4 9.3-2.9 17.7-5.7 18.5-6.2 3.5-2 3.8-1.1 3.8 11.6zm62.7-11c2.2.4 8.1 1.5 13 2.5 5 1 10.6 2.1 12.6 2.4 6.9 1 6.6.1 6.6 18.1v16.5l-3.1-.5c-1.7-.3-6.2-1.2-10.1-2-3.8-.8-7.9-1.7-9-1.8-13.5-2.2-17.5-3.1-17.6-4.1-.1-1.5-.1-29.8 0-31.4.1-.8.8-1.1 1.9-.8.9.3 3.5.8 5.7 1.1zm95 21.4c7.9 2.1 22 6.3 28 8.3l4 1.3v15.5c.1 8.5 0 16-.2 16.6-.3.7-2.2.5-6.1-.8-3.1-1-11.3-3.5-18.2-5.4-6.9-1.9-13.2-3.7-14-3.9-1.3-.4-1.5-2.9-1.4-16.7.1-9 .2-16.4.3-16.6.1-.3-.1-.4 7.6 1.7zm105.5 38.9c7.4 3.6 15.3 7.8 17.5 9.2l4 2.5-.2 13c-.1 7.1-.2 14.4-.2 16.1l-.1 3.1-19.9-10-19.9-9.9v-16.3l.1-16.3 2.6.9c1.4.6 8.7 4 16.1 7.7zm-954.5 36.7c0 11.3-.2 20.5-.5 20.6-.3 0-9.2.2-19.7.3l-19.3.4v-20.2c0-11.2.3-20.6.7-20.9.3-.4 9.2-.7 19.7-.7h19.1v20.5zm73-18c18.1.8 20.6 1.1 21.4 2.3.5.8.6 35 .2 39.5-.1.5-3.8.6-8.3.3-4.6-.3-13.2-.8-19.3-1.2-6-.3-11.2-.7-11.4-.9-.2-.2-.4-9.4-.5-20.4-.1-18.4.3-21.6 2.4-20.6.3.2 7.3.6 15.5 1zm-168 21.5c0 11.7-.4 20.3-1 20.8-.6.6-3.7 1.2-7 1.6-7.4.7-13 1.4-17 2.1-1.6.2-4.7.7-6.9 1.1-2.1.3-4.7.7-5.7.9-1.8.4-1.9-.6-1.9-20.4v-20.8l10.8-1.7c5.9-.9 13.4-1.9 16.7-2.2 3.3-.4 6.1-.7 6.2-.8.1-.1 1.5-.3 3-.4l2.9-.2-.1 20zm258.5-14.5c3 .3 7.7.7 10.3 1 2.7.2 7.3.7 10.3 1.1l5.4.6v40.9l-10.2-.6c-5.7-.4-10.5-.9-10.8-1-.3-.2-4.4-.7-9-1-4.7-.4-8.7-1-9-1.2-.3-.3-.5-9.7-.5-20.9l-.1-20.5 4.1.5c2.2.3 6.5.8 9.5 1.1zm89.5 9.9c2.2.3 6 .8 8.5 1.1 2.5.2 7.9.9 12 1.5 4.1.5 8.3 1 9.3 1 1.6 0 1.7 1.7 1.7 21.1v21.1l-2.7-.6c-1.6-.3-8.4-1.3-15.3-2.1-6.9-.9-13.4-1.7-14.5-1.9-1.1-.3-3.1-.5-4.5-.5l-2.5-.1.1-20.3c.1-11.1.2-20.6.3-21 0-.5.9-.6 1.9-.3.9.2 3.5.7 5.7 1zm797.8 9.2c8.4 4.2 16.2 8.2 17.4 8.8 2.2 1.1 2.3 1.5 2.3 17.9v16.9l-3.7-2.3c-2.1-1.3-7.8-4.8-12.8-7.9-4.9-3.1-12.2-7.4-16.1-9.5l-7.1-3.9v-14.7l.1-14.7 2.4.9c1.3.5 9.2 4.3 17.5 8.5zM656 1981.4v20.4l-3.2 1.2c-11 4.1-19.4 7.8-27.5 12l-9.3 4.8v-41.4l10.3-5.2c10.6-5.4 26.3-12.1 28.5-12.2.9 0 1.2 4.7 1.2 20.4zm548.5-10.9c12 1.8 16.4 2.3 18.8 2.4 1.6.1 1.7 1.8 1.7 21.2v21.1l-2.7-.6c-2.9-.5-14.4-2.2-20.3-3-1.9-.3-5.7-.8-8.5-1.1-9.3-1.2-8.5.9-8.5-22.1v-20.6l4.8.7c2.6.3 9.2 1.2 14.7 2zm109.5 16.1c2.5.3 4.7.8 5 1.1.6.6.7 39.2 0 40.2-.3.5-7.2-.2-15.5-1.5-8.2-1.2-16.8-2.5-18.9-2.8-2.2-.3-4.1-.8-4.3-1-.3-.3-.5-12.3-.4-32.2l.1-9 14.8 2.3c8.1 1.2 16.7 2.6 19.2 2.9zm82.5 12.2 18 2.8v20.7c0 11.4-.2 20.7-.5 20.7-.4 0-3.1-.4-6.1-1-3-.5-7-1.1-8.9-1.4-1.9-.2-7.1-1-11.5-1.7-4.4-.6-8.9-1.3-10-1.4-1.9-.2-2-1-2.3-20.8-.2-19.3-.1-20.7 1.5-20.7 1 .1 9.9 1.3 19.8 2.8zm86.5 12.7c.8.1 3.8.6 6.5.9 13.2 1.8 18.9 2.7 19.3 3.1.4.4.4 8.1.3 33.3l-.1 7.9-5.2-.8c-2.9-.5-11.5-1.7-19.1-2.8-7.6-1-14.1-2.1-14.4-2.5-.5-.4-.8-34.6-.4-40 .1-.7 7.2-.2 13.1.9zm500.5 25.6v20.1l-3.9 2c-4 2-32.6 11.8-34.6 11.8-.7 0-1-6.9-.8-20.7l.3-20.7 9.8-2.8c5.3-1.5 13.7-4.3 18.5-6.2 4.8-1.9 9.2-3.5 9.7-3.5.7-.1 1 7.1 1 20zm-404-12.7c1.1.2 7.1.9 13.3 1.6l11.2 1.3v41.5l-3.2-.4c-1.8-.2-10.4-1.3-19.1-2.4-8.7-1.1-16.1-2-16.5-2-.4 0-.7-9.3-.7-20.6v-20.6l6.5.6c3.6.3 7.4.8 8.5 1zm90.5 10c4.7.4 10.1.9 12 1.1 1.9.2 6.5.6 10.3 1l6.7.7v41.1l-8.4-.7c-9.9-.7-21.5-1.8-23.6-2.2-.8-.1-2.9-.3-4.5-.3l-3-.1.1-19.8c.1-22.3.1-22.5 1.2-21.9.4.3 4.5.8 9.2 1.1zm218.5 25.3c0 17.5-.2 20.6-1.5 20.8-3.6.5-18.3 1.6-27.7 2.1l-10.3.6v-20.5c0-15.5.3-20.6 1.3-20.9.6-.3 4.8-.6 9.2-.7 4.4-.1 11.6-.6 16-1 4.4-.5 9.1-.9 10.5-1l2.6-.1-.1 20.7zm-99.7-17.7h5.2v41.8l-3.2-.3c-1.8-.2-8.9-.5-15.8-.6-6.9-.1-14.4-.5-16.7-.7l-4.3-.4v-41l14.8.6c8.1.3 17.1.5 20 .6zm-848.7 49.2c.1 1.7.1 35.7 0 38.4-.1 2-.5 2.1-19.6 2l-19.5-.1-.1-3c0-2.8 0-28 .1-35.3v-3.2h19.5c14.9 0 19.5.3 19.6 1.2zm-94.6 22.3c0 17.7-.2 20.5-1.5 20.6-.8 0-2.2.2-3 .3-.8.2-5.8.7-11 1-5.2.4-10.4.9-11.5 1.1-1.1.2-4.4.7-7.2 1l-5.3.5v-20.4c0-11.3.3-20.7.8-20.9.4-.3 4.1-.8 8.2-1.2 4.1-.4 10.4-1 14-1.4 3.6-.4 8.8-.8 11.5-.9l5-.3v20.6zm169.5-19c1.9.2 6.9.7 11 1.1 4.1.3 7.8.8 8.3 1.1.4.2.7 9.7.7 20.9v20.6l-3.7-.6c-2.1-.3-6.7-.8-10.3-1.1-3.6-.3-8.1-.8-10-1-1.9-.2-6.1-.6-9.2-.7-3.2-.2-5.9-.5-5.9-.8-.1-.3-.3-9.6-.3-20.8l-.2-20.3 8 .6c4.5.3 9.7.8 11.6 1zm104 13.5c3.6.6 7.5 1.3 8.8 1.6 2.2.4 2.2.5 2.2 20.9 0 11.3-.3 20.5-.7 20.5-.5 0-9.4-1.4-19.8-3.1l-19-3.1.1-20.7c.1-11.3.2-20.6.3-20.7.1 0 20.2 3.2 28.1 4.6zm-368.5 17.6c0 10.7-.2 19.9-.5 20.4s-6 2.1-12.6 3.5c-6.5 1.3-14.6 3.1-17.9 3.9-3.3.9-6.6 1.5-7.2 1.6-1 0-1.3-4.7-1.3-20.4 0-18.6.2-20.5 1.8-21 8-2.2 36.6-8.3 37.2-7.8.3.2.5 9.1.5 19.8zm453.3-.6c9.7 2.3 18.5 4.3 19.5 4.6 1.5.5 1.7 2.4 1.7 21.1v20.5l-2.7-.5c-1.6-.4-10.4-2.4-19.8-4.5l-17-3.9-.3-20.6c-.1-11.4 0-20.7.4-20.7.3 0 8.5 1.8 18.2 4zm-548 26.6-.3 20.6-7.5 2.8c-5.9 2.2-22.5 9-30.7 12.7-1 .4-1.3-4-1.3-20.1 0-20.3 0-20.5 2.3-21.7 2.8-1.5 35.9-14.8 37-14.9.4 0 .6 9.3.5 20.6zm658.7 1.5 5 1.1v20.7l.1 20.8-7.6-1.8c-9.7-2.3-31.3-7.9-31.6-8.2-.3-.3-.5-19.4-.5-33.3l.1-8.1 14.8 3.9c8.1 2.1 17 4.3 19.7 4.9zm70.6 16.9c5.2 1.1 13.6 2.9 18.8 4 5.2 1.1 9.7 2.3 10 2.6.3.3.6 9.7.6 21 0 17.7-.2 20.3-1.5 19.9-.8-.2-8.9-2-18-4s-17.3-3.8-18.2-4.1c-1.6-.5-1.8-2.4-1.8-21 0-11.2.2-20.4.3-20.4.2 0 4.6.9 9.8 2zm598.4 29.7v20.6l-8.1 2.8c-4.5 1.5-13.4 4.4-19.8 6.3l-11.6 3.4v-3.9c0-2.1-.1-11.4-.1-20.6v-16.7l12.3-3.8c6.8-2 15.5-4.8 19.3-6.2 3.9-1.3 7.2-2.5 7.5-2.5.3-.1.5 9.2.5 20.6zm-492.2-8.8c9.2 1.6 17 3.1 17.3 3.4.7.7.7 39.7.1 40.4-.5.4-37.9-5.6-38.5-6.2-.3-.3-.5-30.9-.3-38.8.1-2.3.4-2.7 2.4-2.2 1.2.3 9.8 1.8 19 3.4zm98.2 14 14 1.6.3 20.7.2 20.8-4.2-.5c-2.4-.3-8.3-.9-13.3-1.5-4.9-.6-11-1.3-13.5-1.6-9.4-1-8.5 1.3-8.5-21.9v-20.6l5.5.7c3 .4 11.8 1.4 19.5 2.3zm299 18.5c0 11.2-.2 20.7-.5 21-.3.2-2.8.8-5.5 1.1-2.8.4-5.2.9-5.5 1-.3.2-3.3.6-6.5 1-3.3.3-6.7.8-7.5 1-.8.2-4.3.7-7.7 1l-6.3.7v-41l2.8-.6c1.5-.3 5.2-.8 8.2-1.2 3-.3 6.2-.8 7.1-.9.9-.2 4-.6 7-1 4.5-.6 7.9-1.2 13.9-2.4.3-.1.6 9.1.5 20.3zm-208.9-10.8c8.7.4 16.7.7 17.7.6 1.6-.1 1.7 1.5 1.7 20.9v21l-12.2-.7c-6.8-.3-13.6-.8-15.3-.9-1.6-.2-5.1-.3-7.6-.4l-4.5-.1.2-20.3c.1-11.1.2-20.5.3-20.9 0-.4.9-.5 1.9-.3 1 .2 9 .7 17.8 1.1zm114.4 20.9c0 15.6-.3 20.7-1.2 21-.7.2-9.7.6-20 .8l-18.8.5v-41.7l13.3-.3c7.2-.2 16.2-.4 20-.6l6.7-.2v20.5z"/></svg>