<?xml version="1.0" standalone="no"?>
<!DOCTYPE svg PUBLIC "-//W3C//DTD SVG 20010904//EN"
 "http://www.w3.org/TR/2001/REC-SVG-20010904/DTD/svg10.dtd">
<svg version="1.0" xmlns="http://www.w3.org/2000/svg"
 width="2480.000000pt" height="2480.000000pt" viewBox="0 0 2480.000000 2480.000000"
 preserveAspectRatio="xMidYMid meet">
<metadata>
Created by potrace 1.14, written by Peter Selinger 2001-2017
</metadata>
<g transform="translate(0.000000,2480.000000) scale(0.100000,-0.100000)"
fill="#000000" stroke="none">
<path d="M12187 22724 c-1 -1 -108 -5 -237 -8 -129 -4 -257 -9 -285 -11 -27
-2 -84 -6 -125 -10 -41 -3 -95 -7 -120 -10 -25 -3 -70 -7 -100 -10 -30 -3 -73
-8 -95 -11 -22 -3 -58 -7 -80 -10 -22 -2 -58 -7 -80 -10 -22 -3 -51 -7 -65 -9
-37 -5 -112 -17 -135 -21 -11 -2 -40 -7 -65 -10 -25 -3 -52 -7 -60 -9 -8 -2
-31 -7 -50 -10 -155 -26 -658 -141 -765 -175 -16 -6 -106 -33 -200 -61 -885
-264 -1796 -725 -2561 -1294 -83 -62 -159 -120 -170 -128 -10 -9 -48 -39 -84
-68 -36 -28 -76 -61 -90 -73 -14 -11 -52 -43 -85 -71 -33 -27 -62 -52 -65 -55
-3 -3 -43 -39 -90 -80 -165 -145 -432 -406 -585 -571 -689 -745 -1254 -1626
-1630 -2544 -92 -227 -236 -626 -261 -725 -2 -8 -15 -53 -29 -100 -14 -47 -48
-172 -76 -279 -55 -210 -54 -204 -74 -306 -7 -38 -16 -77 -19 -85 -3 -8 -7
-31 -10 -50 -6 -34 -10 -57 -21 -110 -3 -14 -8 -41 -11 -60 -2 -19 -7 -46 -10
-60 -2 -14 -6 -36 -9 -50 -3 -13 -7 -42 -10 -65 -3 -22 -8 -51 -10 -65 -7 -41
-22 -140 -30 -210 -3 -25 -7 -61 -10 -80 -5 -40 -16 -159 -29 -310 -17 -189
-21 -325 -21 -670 0 -336 6 -535 20 -675 7 -72 15 -165 20 -225 3 -36 7 -76
10 -90 2 -14 7 -50 10 -80 4 -30 8 -67 11 -81 2 -15 6 -47 9 -70 5 -39 16
-106 30 -186 3 -16 7 -45 10 -66 14 -104 118 -579 155 -710 11 -40 25 -88 30
-107 68 -240 111 -376 190 -595 65 -179 111 -299 140 -362 11 -24 20 -45 20
-48 0 -3 35 -83 77 -178 90 -201 242 -504 339 -673 37 -66 73 -130 81 -144 27
-53 252 -405 328 -516 438 -635 981 -1232 1556 -1711 158 -131 164 -136 289
-230 223 -168 270 -203 279 -203 5 0 11 -4 13 -8 6 -16 429 -291 568 -370 19
-11 76 -43 125 -72 50 -29 194 -105 320 -170 200 -101 285 -141 529 -250 198
-88 738 -282 906 -325 8 -2 96 -26 195 -53 229 -63 475 -120 680 -157 96 -17
206 -35 245 -41 25 -3 54 -7 65 -9 11 -2 43 -6 70 -9 28 -3 64 -8 80 -11 17
-2 50 -7 75 -9 25 -3 66 -8 93 -11 97 -11 134 -14 212 -20 44 -3 103 -8 130
-10 282 -23 1298 -23 1515 0 19 2 73 6 120 9 47 4 101 8 120 10 19 3 64 7 100
11 36 3 76 8 90 10 14 2 48 7 75 10 28 3 64 7 80 10 17 3 48 7 70 10 22 3 111
17 199 31 161 26 160 26 401 9 44 -3 158 -13 220 -20 22 -3 65 -7 95 -10 83
-7 342 -35 370 -40 14 -2 50 -6 80 -10 30 -4 66 -8 80 -10 14 -2 48 -7 76 -10
28 -3 59 -7 70 -9 35 -7 104 -18 127 -21 67 -8 133 -17 151 -21 12 -2 37 -7
56 -9 48 -7 90 -14 120 -20 28 -6 119 -22 165 -29 17 -3 75 -14 130 -25 55
-11 118 -23 140 -27 22 -3 43 -8 46 -10 3 -2 19 -6 35 -8 42 -8 62 -12 134
-30 36 -8 115 -27 175 -41 61 -14 133 -32 160 -40 28 -8 115 -33 195 -56 148
-42 334 -102 450 -146 36 -14 72 -26 80 -28 15 -4 109 -41 190 -77 25 -10 54
-23 65 -28 64 -27 273 -130 350 -173 181 -102 380 -244 503 -362 l53 -50 -33
-1 c-18 -1 -82 -4 -143 -8 -117 -6 -716 -7 -825 -1 -36 2 -126 6 -200 9 -74 4
-160 9 -190 11 -30 2 -93 7 -140 10 -47 3 -112 8 -145 11 -33 2 -85 7 -115 9
-87 7 -292 26 -325 30 -16 2 -61 6 -100 10 -38 4 -81 8 -95 10 -14 2 -56 7
-95 10 -38 4 -81 8 -95 10 -14 2 -52 6 -85 10 -33 3 -91 10 -130 15 -38 5 -95
12 -125 16 -229 25 -1190 154 -1340 179 -14 3 -152 23 -305 45 -154 22 -320
47 -370 55 -49 7 -110 16 -135 20 -25 3 -70 10 -100 15 -30 5 -75 12 -100 15
-25 3 -70 10 -100 15 -30 5 -75 12 -100 15 -25 3 -70 10 -100 15 -30 5 -77 12
-105 15 -27 4 -57 8 -65 10 -8 2 -35 7 -60 10 -42 6 -189 27 -270 40 -50 7
-438 64 -480 70 -19 3 -132 18 -250 35 -118 17 -233 33 -255 36 -22 3 -67 9
-100 14 -33 5 -80 11 -105 14 -42 5 -93 12 -280 36 -41 6 -95 13 -120 15 -25
3 -61 8 -80 10 -79 11 -111 15 -240 30 -74 9 -148 18 -165 20 -16 3 -97 12
-180 20 -82 9 -166 18 -185 20 -19 2 -62 7 -95 10 -33 3 -78 8 -100 10 -22 3
-71 7 -110 10 -38 3 -88 7 -110 10 -22 2 -71 7 -110 10 -38 3 -92 8 -120 10
-27 3 -84 7 -125 10 -41 2 -111 7 -155 10 -354 24 -539 30 -970 30 -386 0
-624 -6 -755 -20 -99 -11 -138 -15 -195 -20 -53 -5 -114 -13 -245 -31 -115
-17 -365 -72 -495 -109 -540 -155 -893 -409 -1074 -772 l-40 -81 0 -1081 c0
-594 1 -1081 4 -1081 2 0 32 20 67 44 252 174 706 377 1144 510 476 145 1101
260 1579 292 50 3 106 7 125 9 203 24 1073 24 1330 0 19 -1 84 -6 144 -10 60
-4 116 -8 125 -10 9 -1 56 -6 105 -10 49 -4 98 -8 110 -10 11 -2 53 -6 91 -10
39 -4 77 -8 85 -10 8 -1 42 -6 75 -9 121 -14 485 -68 650 -97 198 -35 466 -86
486 -93 8 -3 28 -7 44 -9 91 -13 657 -151 955 -231 144 -40 623 -160 820 -206
220 -52 748 -164 875 -186 17 -2 89 -15 160 -29 72 -13 148 -26 170 -30 22 -4
49 -9 60 -11 21 -4 324 -51 385 -60 19 -3 46 -7 60 -10 23 -4 369 -48 468 -59
163 -19 307 -34 397 -40 44 -4 89 -8 101 -10 11 -2 76 -6 145 -10 68 -4 132
-9 141 -11 124 -22 1262 -22 1385 0 10 2 68 7 128 11 61 4 117 8 125 10 8 1
47 6 85 9 135 13 458 60 564 81 9 2 75 15 146 29 584 119 1184 357 1473 587
l62 50 -1 1487 c-1 1149 -4 1505 -14 1567 -30 190 -160 462 -324 680 -92 122
-276 315 -381 401 -19 16 -41 35 -48 42 -8 7 -30 25 -50 40 -21 15 -39 29 -42
33 -25 28 -290 199 -451 291 -135 78 -389 197 -589 278 -58 23 -121 48 -140
55 -19 8 -86 32 -148 53 l-114 38 89 80 c117 105 540 527 634 634 120 135 142
160 208 240 34 41 70 84 80 96 163 190 563 760 691 984 114 197 154 269 192
340 55 103 197 386 228 455 12 28 36 79 52 115 101 221 212 506 299 775 34
105 65 199 69 210 5 11 20 65 35 120 15 55 34 121 41 146 8 25 16 54 18 65 2
10 18 75 35 144 26 109 54 238 91 425 12 61 17 92 30 175 6 36 13 76 15 89 2
13 7 45 11 70 3 25 8 57 10 71 2 14 6 48 9 75 3 28 8 66 10 85 17 142 19 163
30 300 4 47 8 103 10 125 23 243 23 864 -1 1165 -12 155 -26 318 -29 340 -2
14 -6 50 -10 80 -3 30 -12 100 -20 155 -8 55 -17 116 -19 135 -3 19 -7 51 -11
70 -3 19 -8 46 -10 60 -12 71 -18 105 -40 215 -13 66 -27 135 -30 154 -3 19
-8 37 -10 41 -2 4 -7 22 -10 41 -3 19 -8 42 -11 51 -3 9 -7 27 -9 40 -9 46
-38 156 -77 293 -21 77 -40 145 -42 150 -99 366 -350 1005 -538 1370 -17 33
-35 68 -40 78 -19 41 -27 56 -63 122 -154 285 -269 476 -438 729 -130 196
-196 289 -209 294 -4 2 -8 8 -8 13 0 16 -274 363 -409 518 -178 205 -226 256
-436 466 -262 263 -458 438 -725 650 -122 97 -325 249 -375 280 -16 11 -32 22
-35 26 -17 22 -504 332 -625 399 -85 46 -197 109 -215 120 -43 27 -512 255
-615 300 -376 163 -755 298 -1110 397 -208 57 -248 67 -470 117 -88 19 -173
38 -190 41 -141 25 -215 38 -240 42 -16 2 -55 8 -85 13 -30 5 -75 12 -100 15
-25 3 -72 10 -105 15 -58 8 -115 15 -217 25 -27 3 -69 7 -95 10 -66 6 -199 17
-253 21 -129 8 -937 23 -943 18z m5681 -15290 c90 -21 327 -96 338 -107 7 -6
8 -317 1 -323 -2 -2 -32 6 -67 17 -34 12 -122 39 -194 59 l-131 37 -1 167 c-1
144 0 166 13 162 8 -4 27 -9 41 -12z m1127 -427 l160 -82 3 -167 2 -166 -197
99 -198 99 -1 163 -1 164 36 -14 c20 -8 108 -52 196 -96z m898 -629 c90 -90
172 -178 182 -195 11 -18 23 -33 27 -33 4 0 8 -74 8 -165 0 -91 -3 -165 -7
-165 -5 0 -19 17 -33 37 -28 41 -238 256 -312 320 l-48 41 0 161 c0 104 4 161
10 161 6 0 84 -73 173 -162z m-4525 -293 l-1 -126 -26 5 c-14 3 -46 8 -71 11
-25 2 -56 7 -70 9 -14 2 -54 7 -90 11 -36 3 -74 8 -85 10 -11 2 -30 4 -41 4
-18 1 -21 6 -17 38 2 21 5 38 6 38 1 1 78 25 172 54 93 29 177 57 185 62 35
20 38 11 38 -116z m627 110 c22 -4 81 -15 130 -25 50 -10 106 -21 126 -24 69
-10 66 -1 66 -181 l0 -165 -31 5 c-17 3 -62 12 -101 20 -38 8 -79 17 -90 18
-135 22 -175 31 -176 41 -1 15 -1 298 0 314 1 8 8 11 19 8 9 -3 35 -8 57 -11z
m950 -214 c79 -21 220 -63 280 -83 l40 -13 0 -155 c1 -85 0 -160 -2 -166 -3
-7 -22 -5 -61 8 -31 10 -113 35 -182 54 -69 19 -132 37 -140 39 -13 4 -15 29
-14 167 1 90 2 164 3 166 1 3 -1 4 76 -17z m1055 -389 c74 -36 153 -78 175
-92 l40 -25 -2 -130 c-1 -71 -2 -144 -2 -161 l-1 -31 -199 100 -199 99 0 163
1 163 26 -9 c14 -6 87 -40 161 -77z m-9545 -367 c0 -113 -2 -205 -5 -206 -3 0
-92 -2 -197 -3 l-193 -4 0 202 c0 112 3 206 7 209 3 4 92 7 197 7 l191 0 0
-205z m730 180 c181 -8 206 -11 214 -23 5 -8 6 -350 2 -395 -1 -5 -38 -6 -83
-3 -46 3 -132 8 -193 12 -60 3 -112 7 -114 9 -2 2 -4 94 -5 204 -1 184 3 216
24 206 3 -2 73 -6 155 -10z m-1680 -215 c0 -117 -4 -203 -10 -208 -6 -6 -37
-12 -70 -16 -74 -7 -130 -14 -170 -21 -16 -2 -47 -7 -69 -11 -21 -3 -47 -7
-57 -9 -18 -4 -19 6 -19 204 l0 208 108 17 c59 9 134 19 167 22 33 4 61 7 62
8 1 1 15 3 30 4 l29 2 -1 -200z m2585 145 c30 -3 77 -7 103 -10 27 -2 73 -7
103 -11 l54 -6 0 -205 0 -204 -102 6 c-57 4 -105 9 -108 10 -3 2 -44 7 -90 10
-47 4 -87 10 -90 12 -3 3 -5 97 -5 209 l-1 205 41 -5 c22 -3 65 -8 95 -11z
m895 -99 c22 -3 60 -8 85 -11 25 -2 79 -9 120 -15 41 -5 83 -10 93 -10 16 0
17 -17 17 -211 l0 -211 -27 6 c-16 3 -84 13 -153 21 -69 9 -134 17 -145 19
-11 3 -31 5 -45 5 l-25 1 1 203 c1 111 2 206 3 210 0 5 9 6 19 3 9 -2 35 -7
57 -10z m7978 -92 c84 -42 162 -82 174 -88 22 -11 23 -15 23 -179 l0 -169 -37
23 c-21 13 -78 48 -128 79 -49 31 -122 74 -161 95 l-71 39 0 147 1 147 24 -9
c13 -5 92 -43 175 -85z m-12403 -158 l0 -204 -32 -12 c-110 -41 -194 -78 -275
-120 l-93 -48 0 207 0 207 103 52 c106 54 263 121 285 122 9 0 12 -47 12 -204z
m5485 109 c120 -18 164 -23 188 -24 16 -1 17 -18 17 -212 l0 -211 -27 6 c-29
5 -144 22 -203 30 -19 3 -57 8 -85 11 -93 12 -85 -9 -85 221 l0 206 48 -7 c26
-3 92 -12 147 -20z m1095 -161 c25 -3 47 -8 50 -11 6 -6 7 -392 0 -402 -3 -5
-72 2 -155 15 -82 12 -168 25 -189 28 -22 3 -41 8 -43 10 -3 3 -5 123 -4 322
l1 90 148 -23 c81 -12 167 -26 192 -29z m825 -122 l180 -28 0 -207 c0 -114 -2
-207 -5 -207 -4 0 -31 4 -61 10 -30 5 -70 11 -89 14 -19 2 -71 10 -115 17 -44
6 -89 13 -100 14 -19 2 -20 10 -23 208 -2 193 -1 207 15 207 10 -1 99 -13 198
-28z m865 -127 c8 -1 38 -6 65 -9 132 -18 189 -27 193 -31 4 -4 4 -81 3 -333
l-1 -79 -52 8 c-29 5 -115 17 -191 28 -76 10 -141 21 -144 25 -5 4 -8 346 -4
400 1 7 72 2 131 -9z m5005 -256 l0 -201 -39 -20 c-40 -20 -326 -118 -346
-118 -7 0 -10 69 -8 207 l3 207 98 28 c53 15 137 43 185 62 48 19 92 35 97 35
7 1 10 -71 10 -200z m-4040 127 c11 -2 71 -9 133 -16 l112 -13 0 -207 0 -208
-32 4 c-18 2 -104 13 -191 24 -87 11 -161 20 -165 20 -4 0 -7 93 -7 206 l0
206 65 -6 c36 -3 74 -8 85 -10z m905 -100 c47 -4 101 -9 120 -11 19 -2 65 -6
103 -10 l67 -7 0 -205 0 -206 -84 7 c-99 7 -215 18 -236 22 -8 1 -29 3 -45 3
l-30 1 1 198 c1 223 1 225 12 219 4 -3 45 -8 92 -11z m2185 -253 c0 -175 -2
-206 -15 -208 -36 -5 -183 -16 -277 -21 l-103 -6 0 205 c0 155 3 206 13 209 6
3 48 6 92 7 44 1 116 6 160 10 44 5 91 9 105 10 l26 1 -1 -207z m-997 177 l52
0 0 -209 0 -209 -32 3 c-18 2 -89 5 -158 6 -69 1 -144 5 -167 7 l-43 4 0 205
0 205 148 -6 c81 -3 171 -5 200 -6z m-8487 -492 c1 -17 1 -357 0 -384 -1 -20
-5 -21 -196 -20 l-195 1 -1 30 c0 28 0 280 1 353 l0 32 195 0 c149 0 195 -3
196 -12z m-946 -223 c0 -177 -2 -205 -15 -206 -8 0 -22 -2 -30 -3 -8 -2 -58
-7 -110 -10 -52 -4 -104 -9 -115 -11 -11 -2 -44 -7 -72 -10 l-53 -5 0 204 c0
113 3 207 8 209 4 3 41 8 82 12 41 4 104 10 140 14 36 4 88 8 115 9 l50 3 0
-206z m1695 190 c19 -2 69 -7 110 -11 41 -3 78 -8 83 -11 4 -2 7 -97 7 -209
l0 -206 -37 6 c-21 3 -67 8 -103 11 -36 3 -81 8 -100 10 -19 2 -61 6 -92 7
-32 2 -59 5 -59 8 -1 3 -3 96 -3 208 l-2 203 80 -6 c45 -3 97 -8 116 -10z
m1040 -135 c36 -6 75 -13 88 -16 22 -4 22 -5 22 -209 0 -113 -3 -205 -7 -205
-5 0 -94 14 -198 31 l-190 31 1 207 c1 113 2 206 3 207 1 0 202 -32 281 -46z
m-3685 -176 c0 -107 -2 -199 -5 -204 -3 -5 -60 -21 -126 -35 -65 -13 -146 -31
-179 -39 -33 -9 -66 -15 -72 -16 -10 0 -13 47 -13 204 0 186 2 205 18 210 80
22 366 83 372 78 3 -2 5 -91 5 -198z m4533 6 c97 -23 185 -43 195 -46 15 -5
17 -24 17 -211 l0 -205 -27 5 c-16 4 -104 24 -198 45 l-170 39 -3 206 c-1 114
0 207 4 207 3 0 85 -18 182 -40z m-5480 -266 l-3 -206 -75 -28 c-59 -22 -225
-90 -307 -127 -10 -4 -13 40 -13 201 0 203 0 205 23 217 28 15 359 148 370
149 4 0 6 -93 5 -206z m6587 -15 l50 -11 0 -207 1 -208 -76 18 c-97 23 -313
79 -316 82 -3 3 -5 194 -5 333 l1 81 148 -39 c81 -21 170 -43 197 -49z m706
-169 c52 -11 136 -29 188 -40 52 -11 97 -23 100 -26 3 -3 6 -97 6 -210 0 -177
-2 -203 -15 -199 -8 2 -89 20 -180 40 -91 20 -173 38 -182 41 -16 5 -18 24
-18 210 0 112 2 204 3 204 2 0 46 -9 98 -20z m5984 -297 l0 -206 -81 -28 c-45
-15 -134 -44 -198 -63 l-116 -34 0 39 c0 21 -1 114 -1 206 l0 167 123 38 c68
20 155 48 193 62 39 13 72 25 75 25 3 1 5 -92 5 -206z m-4922 88 c92 -16 170
-31 173 -34 7 -7 7 -397 1 -404 -5 -4 -379 56 -385 62 -3 3 -5 309 -3 388 1
23 4 27 24 22 12 -3 98 -18 190 -34z m982 -140 l140 -16 3 -207 2 -208 -42 5
c-24 3 -83 9 -133 15 -49 6 -110 13 -135 16 -94 10 -85 -13 -85 219 l0 206 55
-7 c30 -4 118 -14 195 -23z m2990 -185 c0 -112 -2 -207 -5 -210 -3 -2 -28 -8
-55 -11 -28 -4 -52 -9 -55 -10 -3 -2 -33 -6 -65 -10 -33 -3 -67 -8 -75 -10 -8
-2 -43 -7 -77 -10 l-63 -7 0 205 0 205 28 6 c15 3 52 8 82 12 30 3 62 8 71 9
9 2 40 6 70 10 45 6 79 12 139 24 3 1 6 -91 5 -203z m-2089 108 c87 -4 167 -7
177 -6 16 1 17 -15 17 -209 l0 -210 -122 7 c-68 3 -136 8 -153 9 -16 2 -51 3
-76 4 l-45 1 2 203 c1 111 2 205 3 209 0 4 9 5 19 3 10 -2 90 -7 178 -11z
m1144 -209 c0 -156 -3 -207 -12 -210 -7 -2 -97 -6 -200 -8 l-188 -5 0 209 0
208 133 3 c72 2 162 4 200 6 l67 2 0 -205z"/>
</g>
</svg>
